<mxfile host="app.diagrams.net" modified="2023-11-09T01:46:24.133Z" agent="Mozilla/5.0 (Windows NT 10.0; Win64; x64) AppleWebKit/537.36 (KHTML, like Gecko) Chrome/118.0.0.0 Safari/537.36" etag="Jq9kvNrEar5rRAclk0kr" version="22.0.8" type="github">
  <diagram name="第 1 页" id="Fff9GgAuKrWAXovNJm6C">
    <mxGraphModel dx="1014" dy="525" grid="1" gridSize="10" guides="1" tooltips="1" connect="1" arrows="1" fold="1" page="1" pageScale="1" pageWidth="827" pageHeight="1169" math="0" shadow="0">
      <root>
        <mxCell id="0" />
        <mxCell id="1" parent="0" />
        <mxCell id="JugSg7lujtj9oitmNyVM-1" value="&lt;font style=&quot;font-size: 16px;&quot;&gt;lazada oms&lt;/font&gt;" style="rounded=1;whiteSpace=wrap;html=1;" vertex="1" parent="1">
          <mxGeometry x="180" y="100" width="100" height="60" as="geometry" />
        </mxCell>
        <mxCell id="JugSg7lujtj9oitmNyVM-2" value="&lt;font style=&quot;font-size: 16px;&quot;&gt;ebay oms&lt;/font&gt;" style="rounded=1;whiteSpace=wrap;html=1;" vertex="1" parent="1">
          <mxGeometry x="314" y="100" width="100" height="60" as="geometry" />
        </mxCell>
        <mxCell id="JugSg7lujtj9oitmNyVM-3" value="&lt;font style=&quot;font-size: 16px;&quot;&gt;daraz&amp;nbsp;oms&lt;/font&gt;" style="rounded=1;whiteSpace=wrap;html=1;" vertex="1" parent="1">
          <mxGeometry x="450" y="100" width="110" height="60" as="geometry" />
        </mxCell>
        <mxCell id="JugSg7lujtj9oitmNyVM-4" value="&lt;font style=&quot;font-size: 16px;&quot;&gt;amazon oms&lt;/font&gt;" style="rounded=1;whiteSpace=wrap;html=1;" vertex="1" parent="1">
          <mxGeometry x="40" y="100" width="110" height="60" as="geometry" />
        </mxCell>
        <mxCell id="JugSg7lujtj9oitmNyVM-5" value="&lt;font style=&quot;font-size: 16px;&quot;&gt;shopee oms&lt;/font&gt;" style="rounded=1;whiteSpace=wrap;html=1;" vertex="1" parent="1">
          <mxGeometry x="590" y="100" width="110" height="60" as="geometry" />
        </mxCell>
        <mxCell id="JugSg7lujtj9oitmNyVM-6" value="&lt;font style=&quot;font-size: 16px;&quot;&gt;walmart oms&lt;/font&gt;" style="rounded=1;whiteSpace=wrap;html=1;" vertex="1" parent="1">
          <mxGeometry x="40" y="200" width="110" height="60" as="geometry" />
        </mxCell>
        <mxCell id="JugSg7lujtj9oitmNyVM-7" value="&lt;font style=&quot;font-size: 16px;&quot;&gt;wish oms&lt;/font&gt;" style="rounded=1;whiteSpace=wrap;html=1;" vertex="1" parent="1">
          <mxGeometry x="175" y="200" width="110" height="60" as="geometry" />
        </mxCell>
      </root>
    </mxGraphModel>
  </diagram>
</mxfile>
